<svg width="256" height="535" viewBox="0 0 256 535" fill="none" xmlns="http://www.w3.org/2000/svg">
<path fill-rule="evenodd" clip-rule="evenodd" d="M225.506 496C227.926 496 229.878 497.949 229.878 500.342C229.878 502.727 227.925 504.685 225.506 504.685C224.362 504.685 223.322 504.249 222.544 503.537C222.533 503.525 222.521 503.512 222.509 503.5C222.483 503.473 222.455 503.449 222.427 503.425C221.627 502.638 221.133 501.546 221.133 500.342C221.133 497.949 223.086 496 225.506 496ZM220.42 504.164C219.612 503.102 219.133 501.779 219.133 500.342C219.133 496.834 221.992 494 225.506 494C229.02 494 231.878 496.834 231.878 500.342C231.878 503.84 229.021 506.685 225.506 506.685C224.153 506.685 222.898 506.265 221.865 505.548L218.704 508.683C218.312 509.072 217.679 509.07 217.29 508.678C216.901 508.285 216.904 507.652 217.296 507.263L220.42 504.164Z" fill="#9871F5"/>
<path d="M38.9932 409.973L31 409.973" stroke="#9871F5" stroke-width="2" stroke-miterlimit="10" stroke-linecap="round" stroke-linejoin="round"/>
<path d="M34.9975 413.958L34.9975 406" stroke="#9871F5" stroke-width="2" stroke-miterlimit="10" stroke-linecap="round" stroke-linejoin="round"/>
<path d="M138.993 106.974L131 106.974" stroke="#9871F5" stroke-width="2" stroke-miterlimit="10" stroke-linecap="round" stroke-linejoin="round"/>
<path d="M134.997 110.958L134.997 103" stroke="#9871F5" stroke-width="2" stroke-miterlimit="10" stroke-linecap="round" stroke-linejoin="round"/>
<path d="M204.366 25.3045C201.689 25.3045 199.508 23.1452 199.508 20.4739C199.508 17.812 201.68 15.6433 204.366 15.6433C207.043 15.6433 209.223 17.8027 209.223 20.4739C209.214 23.1452 207.043 25.3045 204.366 25.3045Z" stroke="#9871F5" stroke-width="2" stroke-miterlimit="10" stroke-linecap="round" stroke-linejoin="round"/>
<path d="M250.142 309.576C247.465 309.576 245.285 307.417 245.285 304.746C245.285 302.084 247.456 299.915 250.142 299.915C252.819 299.915 255 302.075 255 304.746C254.991 307.417 252.819 309.576 250.142 309.576Z" stroke="#9871F5" stroke-width="2" stroke-miterlimit="10" stroke-linecap="round" stroke-linejoin="round"/>
<path d="M82.8303 12.9557C81.8641 12.9557 81.0808 13.7434 81.0808 14.715C81.0808 15.6867 81.8641 16.4744 82.8303 16.4744C83.7966 16.4744 84.5798 15.6867 84.5798 14.715C84.5798 13.7434 83.7966 12.9557 82.8303 12.9557Z" fill="#9871F5"/>
<path d="M82.8303 25.0002C81.8641 25.0002 81.0808 25.7878 81.0808 26.7595C81.0808 27.7311 81.8641 28.5188 82.8303 28.5188C83.7966 28.5188 84.5798 27.7311 84.5798 26.7595C84.5798 25.7878 83.7966 25.0002 82.8303 25.0002Z" fill="#9871F5"/>
<path d="M70.6098 12.9557C69.6436 12.9557 68.8603 13.7434 68.8603 14.715C68.8603 15.6867 69.6436 16.4744 70.6098 16.4744C71.576 16.4744 72.3593 15.6867 72.3593 14.715C72.3593 13.7434 71.576 12.9557 70.6098 12.9557Z" fill="#9871F5"/>
<path d="M70.6098 25.0002C69.6436 25.0002 68.8603 25.7878 68.8603 26.7595C68.8603 27.7311 69.6436 28.5188 70.6098 28.5188C71.576 28.5188 72.3593 27.7311 72.3593 26.7595C72.3593 25.7878 71.576 25.0002 70.6098 25.0002Z" fill="#9871F5"/>
<path d="M58.4002 12.9557C57.434 12.9557 56.6507 13.7434 56.6507 14.715C56.6507 15.6867 57.434 16.4744 58.4002 16.4744C59.3665 16.4744 60.1497 15.6867 60.1497 14.715C60.1497 13.7434 59.3665 12.9557 58.4002 12.9557Z" fill="#9871F5"/>
<path d="M58.4002 25.0002C57.434 25.0002 56.6507 25.7878 56.6507 26.7595C56.6507 27.7311 57.434 28.5188 58.4002 28.5188C59.3665 28.5188 60.1497 27.7311 60.1497 26.7595C60.1497 25.7878 59.3665 25.0002 58.4002 25.0002Z" fill="#9871F5"/>
<path d="M46.1799 12.9557C45.2137 12.9557 44.4304 13.7434 44.4304 14.715C44.4304 15.6867 45.2137 16.4744 46.1799 16.4744C47.1462 16.4744 47.9294 15.6867 47.9294 14.715C47.9294 13.7434 47.1462 12.9557 46.1799 12.9557Z" fill="#9871F5"/>
<path d="M46.1799 25.0002C45.2137 25.0002 44.4304 25.7878 44.4304 26.7595C44.4304 27.7311 45.2137 28.5188 46.1799 28.5188C47.1462 28.5188 47.9294 27.7311 47.9294 26.7595C47.9294 25.7878 47.1462 25.0002 46.1799 25.0002Z" fill="#9871F5"/>
<path d="M33.9694 12.9557C33.0032 12.9557 32.2199 13.7434 32.2199 14.715C32.2199 15.6867 33.0032 16.4744 33.9694 16.4744C34.9356 16.4744 35.7189 15.6867 35.7189 14.715C35.7189 13.7434 34.9356 12.9557 33.9694 12.9557Z" fill="#9871F5"/>
<path d="M33.9694 25.0002C33.0032 25.0002 32.2199 25.7878 32.2199 26.7595C32.2199 27.7311 33.0032 28.5188 33.9694 28.5188C34.9356 28.5188 35.7189 27.7311 35.7189 26.7595C35.7189 25.7878 34.9356 25.0002 33.9694 25.0002Z" fill="#9871F5"/>
<path d="M21.7496 12.9557C20.7833 12.9557 20 13.7434 20 14.715C20 15.6867 20.7833 16.4744 21.7496 16.4744C22.7158 16.4744 23.4991 15.6867 23.4991 14.715C23.4991 13.7434 22.7158 12.9557 21.7496 12.9557Z" fill="#9871F5"/>
<path d="M21.7496 25.0002C20.7833 25.0002 20 25.7878 20 26.7595C20 27.7311 20.7833 28.5188 21.7496 28.5188C22.7158 28.5188 23.4991 27.7311 23.4991 26.7595C23.4991 25.7878 22.7158 25.0002 21.7496 25.0002Z" fill="#9871F5"/>
<path d="M82.8306 0.675698C81.8644 0.675698 81.0811 1.46337 81.0811 2.43502C81.0811 3.40666 81.8644 4.19434 82.8306 4.19434C83.7968 4.19434 84.5801 3.40666 84.5801 2.43502C84.5801 1.46337 83.7968 0.675698 82.8306 0.675698Z" fill="#9871F5"/>
<path d="M70.6099 0.675698C69.6437 0.675698 68.8604 1.46337 68.8604 2.43502C68.8604 3.40666 69.6437 4.19434 70.6099 4.19434C71.5761 4.19434 72.3594 3.40666 72.3594 2.43502C72.3594 1.46337 71.5761 0.675698 70.6099 0.675698Z" fill="#9871F5"/>
<path d="M58.3999 0.675698C57.4337 0.675698 56.6504 1.46337 56.6504 2.43502C56.6504 3.40666 57.4337 4.19434 58.3999 4.19434C59.3662 4.19434 60.1495 3.40666 60.1495 2.43502C60.1495 1.46337 59.3662 0.675698 58.3999 0.675698Z" fill="#9871F5"/>
<path d="M46.1797 0.675698C45.2135 0.675698 44.4302 1.46337 44.4302 2.43502C44.4302 3.40666 45.2135 4.19434 46.1797 4.19434C47.146 4.19434 47.9292 3.40666 47.9292 2.43502C47.9292 1.46337 47.146 0.675698 46.1797 0.675698Z" fill="#9871F5"/>
<path d="M33.9693 0.675698C33.0031 0.675698 32.2198 1.46337 32.2198 2.43502C32.2198 3.40666 33.0031 4.19434 33.9693 4.19434C34.9355 4.19434 35.7188 3.40666 35.7188 2.43502C35.7188 1.46337 34.9355 0.675698 33.9693 0.675698Z" fill="#9871F5"/>
<path d="M21.7496 0.675698C20.7833 0.675698 20 1.46337 20 2.43502C20 3.40666 20.7833 4.19434 21.7496 4.19434C22.7158 4.19434 23.4991 3.40666 23.4991 2.43502C23.4991 1.46337 22.7158 0.675698 21.7496 0.675698Z" fill="#9871F5"/>
<path d="M209.91 377.826C209.91 378.792 210.697 379.575 211.669 379.575C212.641 379.575 213.428 378.792 213.428 377.826C213.428 376.859 212.641 376.076 211.669 376.076C210.697 376.076 209.91 376.859 209.91 377.826Z" fill="#9871F5"/>
<path d="M209.91 390.037C209.91 391.004 210.698 391.787 211.669 391.787C212.641 391.787 213.429 391.004 213.429 390.037C213.429 389.071 212.641 388.288 211.669 388.288C210.698 388.288 209.91 389.071 209.91 390.037Z" fill="#9871F5"/>
<path d="M209.91 402.256C209.91 403.222 210.698 404.005 211.669 404.005C212.641 404.005 213.429 403.222 213.429 402.256C213.429 401.289 212.641 400.506 211.669 400.506C210.698 400.506 209.91 401.289 209.91 402.256Z" fill="#9871F5"/>
<path d="M197.621 377.825C197.621 378.792 198.409 379.575 199.38 379.575C200.352 379.575 201.139 378.792 201.139 377.825C201.139 376.859 200.352 376.076 199.38 376.076C198.409 376.076 197.621 376.859 197.621 377.825Z" fill="#9871F5"/>
<path d="M197.621 390.037C197.621 391.004 198.409 391.787 199.38 391.787C200.352 391.787 201.139 391.004 201.139 390.037C201.139 389.071 200.352 388.288 199.38 388.288C198.409 388.288 197.621 389.071 197.621 390.037Z" fill="#9871F5"/>
<path d="M197.621 402.256C197.621 403.222 198.409 404.005 199.38 404.005C200.352 404.005 201.139 403.222 201.139 402.256C201.139 401.289 200.352 400.506 199.38 400.506C198.409 400.506 197.621 401.289 197.621 402.256Z" fill="#9871F5"/>
<path d="M249.289 139.75C249.289 140.716 250.077 141.499 251.049 141.499C252.02 141.499 252.808 140.716 252.808 139.75C252.808 138.784 252.02 138 251.049 138C250.077 138 249.289 138.784 249.289 139.75Z" fill="#9871F5"/>
<path d="M249.289 151.96C249.289 152.926 250.077 153.709 251.049 153.709C252.02 153.709 252.808 152.926 252.808 151.96C252.808 150.994 252.02 150.21 251.049 150.21C250.077 150.21 249.289 150.994 249.289 151.96Z" fill="#9871F5"/>
<path d="M249.289 164.18C249.289 165.146 250.077 165.929 251.049 165.929C252.02 165.929 252.808 165.146 252.808 164.18C252.808 163.213 252.02 162.43 251.049 162.43C250.077 162.43 249.289 163.213 249.289 164.18Z" fill="#9871F5"/>
<path d="M237 139.75C237 140.716 237.788 141.499 238.759 141.499C239.731 141.499 240.519 140.716 240.519 139.75C240.519 138.783 239.731 138 238.759 138C237.788 138 237 138.783 237 139.75Z" fill="#9871F5"/>
<path d="M237 151.96C237 152.926 237.788 153.709 238.759 153.709C239.731 153.709 240.519 152.926 240.519 151.96C240.519 150.994 239.731 150.21 238.759 150.21C237.788 150.21 237 150.994 237 151.96Z" fill="#9871F5"/>
<path d="M237 164.18C237 165.146 237.788 165.93 238.759 165.93C239.731 165.93 240.519 165.146 240.519 164.18C240.519 163.214 239.731 162.431 238.759 162.431C237.788 162.431 237 163.214 237 164.18Z" fill="#9871F5"/>
<path d="M73.7076 532.4C73.7076 533.366 74.4953 534.149 75.4669 534.149C76.4386 534.149 77.2262 533.366 77.2262 532.4C77.2262 531.433 76.4386 530.65 75.4669 530.65C74.4953 530.65 73.7076 531.433 73.7076 532.4Z" fill="#9871F5"/>
<path d="M61.4184 532.4C61.4184 533.366 62.206 534.149 63.1777 534.149C64.1493 534.149 64.937 533.366 64.937 532.4C64.937 531.434 64.1493 530.65 63.1777 530.65C62.206 530.65 61.4184 531.434 61.4184 532.4Z" fill="#9871F5"/>
<path d="M49.1383 532.4C49.1383 533.366 49.926 534.149 50.8977 534.149C51.8693 534.149 52.657 533.366 52.657 532.4C52.657 531.434 51.8693 530.65 50.8977 530.65C49.926 530.65 49.1383 531.434 49.1383 532.4Z" fill="#9871F5"/>
<path d="M36.8491 532.4C36.8491 533.366 37.6368 534.149 38.6084 534.149C39.58 534.149 40.3677 533.366 40.3677 532.4C40.3677 531.434 39.58 530.65 38.6084 530.65C37.6368 530.65 36.8491 531.434 36.8491 532.4Z" fill="#9871F5"/>
<path d="M24.5693 532.4C24.5693 533.366 25.357 534.149 26.3286 534.149C27.3003 534.149 28.088 533.366 28.088 532.4C28.088 531.434 27.3003 530.65 26.3286 530.65C25.357 530.65 24.5693 531.434 24.5693 532.4Z" fill="#9871F5"/>
<path d="M12.28 532.4C12.28 533.366 13.0677 534.149 14.0394 534.149C15.011 534.149 15.7987 533.366 15.7987 532.4C15.7987 531.434 15.011 530.65 14.0394 530.65C13.0677 530.65 12.28 531.434 12.28 532.4Z" fill="#9871F5"/>
<path d="M3.78321e-05 532.4C3.77898e-05 533.366 0.787716 534.149 1.75936 534.149C2.73101 534.149 3.51868 533.366 3.51868 532.4C3.51868 531.434 2.73101 530.65 1.75936 530.65C0.787716 530.65 3.78743e-05 531.434 3.78321e-05 532.4Z" fill="#9871F5"/>
<path d="M73.7076 520.18C73.7076 521.146 74.4953 521.93 75.4669 521.93C76.4386 521.93 77.2262 521.146 77.2262 520.18C77.2262 519.214 76.4386 518.431 75.4669 518.431C74.4953 518.431 73.7076 519.214 73.7076 520.18Z" fill="#9871F5"/>
<path d="M61.4184 520.18C61.4184 521.146 62.206 521.93 63.1777 521.93C64.1493 521.93 64.937 521.146 64.937 520.18C64.937 519.214 64.1493 518.431 63.1777 518.431C62.206 518.431 61.4184 519.214 61.4184 520.18Z" fill="#9871F5"/>
<path d="M49.1383 520.18C49.1383 521.146 49.926 521.93 50.8977 521.93C51.8693 521.93 52.657 521.146 52.657 520.18C52.657 519.214 51.8693 518.431 50.8977 518.431C49.926 518.431 49.1383 519.214 49.1383 520.18Z" fill="#9871F5"/>
<path d="M36.8491 520.18C36.8491 521.146 37.6368 521.93 38.6084 521.93C39.58 521.93 40.3677 521.146 40.3677 520.18C40.3677 519.214 39.58 518.431 38.6084 518.431C37.6368 518.431 36.8491 519.214 36.8491 520.18Z" fill="#9871F5"/>
<path d="M24.5693 520.18C24.5693 521.146 25.357 521.93 26.3286 521.93C27.3003 521.93 28.0879 521.146 28.0879 520.18C28.0879 519.214 27.3003 518.431 26.3286 518.431C25.357 518.431 24.5693 519.214 24.5693 520.18Z" fill="#9871F5"/>
<path d="M12.28 520.18C12.28 521.146 13.0677 521.93 14.0394 521.93C15.011 521.93 15.7987 521.146 15.7987 520.18C15.7987 519.214 15.011 518.431 14.0394 518.431C13.0677 518.431 12.28 519.214 12.28 520.18Z" fill="#9871F5"/>
<path d="M3.78321e-05 520.18C3.77898e-05 521.146 0.787716 521.93 1.75936 521.93C2.73101 521.93 3.51868 521.146 3.51868 520.18C3.51868 519.214 2.73101 518.431 1.75936 518.431C0.787716 518.431 3.78743e-05 519.214 3.78321e-05 520.18Z" fill="#9871F5"/>
<path d="M73.7076 507.969C73.7076 508.935 74.4953 509.719 75.4669 509.719C76.4386 509.719 77.2262 508.935 77.2262 507.969C77.2262 507.003 76.4386 506.22 75.4669 506.22C74.4953 506.22 73.7076 507.003 73.7076 507.969Z" fill="#9871F5"/>
<path d="M61.4184 507.969C61.4184 508.935 62.206 509.719 63.1777 509.719C64.1493 509.719 64.937 508.935 64.937 507.969C64.937 507.003 64.1493 506.22 63.1777 506.22C62.206 506.22 61.4184 507.003 61.4184 507.969Z" fill="#9871F5"/>
<path d="M49.1383 507.969C49.1383 508.935 49.926 509.719 50.8977 509.719C51.8693 509.719 52.657 508.935 52.657 507.969C52.657 507.003 51.8693 506.22 50.8977 506.22C49.926 506.22 49.1383 507.003 49.1383 507.969Z" fill="#9871F5"/>
<path d="M36.8491 507.969C36.8491 508.935 37.6368 509.719 38.6084 509.719C39.58 509.719 40.3677 508.935 40.3677 507.969C40.3677 507.003 39.58 506.22 38.6084 506.22C37.6368 506.22 36.8491 507.003 36.8491 507.969Z" fill="#9871F5"/>
<path d="M24.5693 507.969C24.5693 508.935 25.357 509.719 26.3286 509.719C27.3003 509.719 28.0879 508.935 28.0879 507.969C28.0879 507.003 27.3003 506.22 26.3286 506.22C25.357 506.22 24.5693 507.003 24.5693 507.969Z" fill="#9871F5"/>
<path d="M12.28 507.969C12.28 508.935 13.0677 509.719 14.0394 509.719C15.011 509.719 15.7987 508.935 15.7987 507.969C15.7987 507.003 15.011 506.22 14.0394 506.22C13.0677 506.22 12.28 507.003 12.28 507.969Z" fill="#9871F5"/>
<path d="M3.78321e-05 507.969C3.77898e-05 508.935 0.787716 509.719 1.75936 509.719C2.73101 509.719 3.51868 508.935 3.51868 507.969C3.51868 507.003 2.73101 506.22 1.75936 506.22C0.787716 506.22 3.78743e-05 507.003 3.78321e-05 507.969Z" fill="#9871F5"/>
<path d="M73.7066 495.75C73.7066 496.716 74.4943 497.5 75.4659 497.5C76.4376 497.5 77.2252 496.716 77.2252 495.75C77.2252 494.784 76.4376 494 75.4659 494C74.4943 494 73.7066 494.784 73.7066 495.75Z" fill="#9871F5"/>
<path d="M61.4184 495.75C61.4184 496.716 62.206 497.499 63.1777 497.499C64.1493 497.499 64.937 496.716 64.937 495.75C64.937 494.783 64.1493 494 63.1777 494C62.206 494 61.4184 494.783 61.4184 495.75Z" fill="#9871F5"/>
<path d="M49.1383 495.75C49.1383 496.716 49.926 497.499 50.8977 497.499C51.8693 497.499 52.657 496.716 52.657 495.75C52.657 494.783 51.8693 494 50.8977 494C49.926 494 49.1383 494.783 49.1383 495.75Z" fill="#9871F5"/>
<path d="M36.8491 495.75C36.8491 496.716 37.6368 497.499 38.6084 497.499C39.58 497.499 40.3677 496.716 40.3677 495.75C40.3677 494.783 39.58 494 38.6084 494C37.6368 494 36.8491 494.783 36.8491 495.75Z" fill="#9871F5"/>
<path d="M24.5693 495.75C24.5693 496.716 25.357 497.499 26.3286 497.499C27.3003 497.499 28.0879 496.716 28.0879 495.75C28.0879 494.783 27.3003 494 26.3286 494C25.357 494 24.5693 494.783 24.5693 495.75Z" fill="#9871F5"/>
<path d="M12.28 495.75C12.28 496.716 13.0677 497.499 14.0394 497.499C15.011 497.499 15.7987 496.716 15.7987 495.75C15.7987 494.783 15.011 494 14.0394 494C13.0677 494 12.28 494.783 12.28 495.75Z" fill="#9871F5"/>
<path d="M3.78321e-05 495.75C3.77898e-05 496.716 0.787716 497.499 1.75936 497.499C2.73101 497.499 3.51868 496.716 3.51868 495.75C3.51868 494.783 2.73101 494 1.75936 494C0.787716 494 3.78743e-05 494.783 3.78321e-05 495.75Z" fill="#9871F5"/>
</svg>
